<svg width="64" height="64" viewBox="0 0 64 64" fill="none" xmlns="http://www.w3.org/2000/svg">
<path d="M18.6667 29.3333V18.6666C18.6667 15.1304 20.0714 11.739 22.5719 9.23856C25.0724 6.73807 28.4638 5.33331 32 5.33331C35.5362 5.33331 38.9276 6.73807 41.4281 9.23856C43.9286 11.739 45.3333 15.1304 45.3333 18.6666V29.3333M13.3333 29.3333H50.6667C53.6122 29.3333 56 31.7211 56 34.6666V53.3333C56 56.2788 53.6122 58.6666 50.6667 58.6666H13.3333C10.3878 58.6666 8 56.2788 8 53.3333V34.6666C8 31.7211 10.3878 29.3333 13.3333 29.3333Z" stroke="#1E1E1E" stroke-width="4" stroke-linecap="round" stroke-linejoin="round"/>
</svg>
