<svg width="64" height="64" viewBox="0 0 64 64" fill="none" xmlns="http://www.w3.org/2000/svg">
<path d="M42.6667 42.6667V8H2.66675V42.6667H42.6667ZM42.6667 42.6667H61.3334V29.3333L53.3334 21.3333H42.6667V42.6667ZM21.3334 49.3333C21.3334 53.0152 18.3486 56 14.6667 56C10.9848 56 8.00008 53.0152 8.00008 49.3333C8.00008 45.6514 10.9848 42.6667 14.6667 42.6667C18.3486 42.6667 21.3334 45.6514 21.3334 49.3333ZM56.0001 49.3333C56.0001 53.0152 53.0153 56 49.3334 56C45.6515 56 42.6667 53.0152 42.6667 49.3333C42.6667 45.6514 45.6515 42.6667 49.3334 42.6667C53.0153 42.6667 56.0001 45.6514 56.0001 49.3333Z" stroke="#1E1E1E" stroke-width="4" stroke-linecap="round" stroke-linejoin="round"/>
</svg>
